# Blender v2.93.1 OBJ File: 'scene - Copy.blend'
# www.blender.org
mtllib C1.mtl
o Sphere.004_Sphere.001
v 3.674257 0.524999 -0.496539
v 3.451314 1.419245 -0.775116
v 3.341321 1.394740 0.001652
v 3.382850 0.762632 0.193348
v 3.043940 0.106339 -0.177445
v 2.571688 0.421437 0.126899
v 2.697932 1.307866 0.163936
v 2.721434 1.395891 -1.090748
v 2.535100 1.578976 -0.506622
v 2.178805 1.065048 -0.159794
v 2.322536 0.308584 -0.500489
v 2.371160 0.799760 -1.083883
v 2.554290 0.329199 -0.977258
v 3.286039 0.881328 -1.230408
v 3.408956 0.327348 -0.857081
v 1.613851 1.030491 -1.229513
v 1.121491 2.158693 -1.860906
v 1.025063 1.716218 -0.186720
v 0.990220 0.899747 -0.004042
v 0.354719 -0.224004 -0.520124
v -0.565043 0.245565 -0.131447
v -0.322992 1.945143 -0.060437
v -0.012833 2.179176 -2.431416
v -0.635196 2.464947 -1.346115
v 0.419713 2.499971 -0.848012
v -1.140809 1.405429 -0.421653
v -1.367417 1.383461 -1.180819
v -0.632482 1.811355 -2.402266
v -1.042750 0.029187 -1.334357
v -0.949521 0.970935 -2.452914
v -0.598401 0.068715 -2.248480
v 0.804603 1.127328 -2.733850
v 0.245734 -0.399668 -1.150416
v 1.040274 0.065166 -2.018062
v 1.226292 0.082172 -1.304063
v 2.940430 0.771431 -1.022146
v 2.605429 2.115156 -1.440744
v 2.529857 1.768384 -0.128666
v 2.502551 1.128506 0.014501
v 1.993293 0.142339 -0.542666
v 1.283673 0.615816 -0.085348
v 1.473372 1.947794 -0.029696
v 1.508686 2.080063 -1.915025
v 1.228694 2.355172 -1.037297
v 2.055438 2.382620 -0.646928
v 0.832438 1.524814 -0.312786
v 0.654843 1.507599 -0.907753
v 0.909288 0.446238 -1.028083
v 0.982354 1.184296 -1.904709
v 1.257531 0.477216 -1.744491
v 2.357080 1.306864 -2.124882
v 2.541779 0.474435 -1.563910
v -0.662511 -0.167221 -1.824384
v -0.954151 1.002583 -2.188802
v -1.019942 0.700694 -1.046549
v -1.043714 0.143637 -0.921911
v -1.487057 -0.714889 -1.406963
v -2.104831 -0.302694 -1.008837
v -1.939685 0.856884 -0.960388
v -1.908941 0.972032 -2.601695
v -2.152694 1.211534 -1.837574
v -1.432956 1.235429 -1.497731
v -2.618778 0.539241 -1.383872
v -2.430758 -0.450324 -1.829552
v -2.367150 0.192206 -2.592715
v -2.127590 -0.423355 -2.453235
v -1.170356 0.298910 -2.784391
v -1.009564 -0.425776 -2.296026
v 0.423337 0.834559 -2.562483
v 0.131696 2.004363 -2.926901
v 0.065906 1.702474 -1.784648
v 0.042134 1.145416 -1.660011
v -0.401210 0.286891 -2.145062
v -1.018982 0.699086 -1.746936
v -0.853837 1.858664 -1.698487
v -0.823093 1.973813 -3.339795
v -1.066846 2.213313 -2.575674
v -0.347109 2.237209 -2.235830
v -1.532930 1.541021 -2.121971
v -1.344911 0.551456 -2.567652
v -1.281303 1.193986 -3.330814
v -1.041741 0.578425 -3.191334
v -0.084508 1.300691 -3.522490
v 0.076284 0.576004 -3.034125
vt 0.718750 0.562500
vt 0.687500 0.625000
vt 0.687500 0.562500
vt 0.718750 0.375000
vt 0.718750 0.437500
vt 0.687500 0.437500
vt 0.656250 0.062500
vt 0.656250 0.125000
vt 0.625000 0.125000
vt 0.625000 0.187500
vt 0.638923 0.250000
vt 0.593750 0.250000
vt 0.608254 0.437500
vt 0.562500 0.408104
vt 0.593750 0.375000
vt 0.611602 0.714296
vt 0.562500 0.812500
vt 0.562500 0.750000
vt 0.593750 0.687500
vt 0.562500 0.687500
vt 0.582698 0.584604
vt 0.531250 0.687500
vt 0.531250 0.625000
vt 0.468750 0.250000
vt 0.468750 0.312500
vt 0.437500 0.345385
vt 0.468750 0.625000
vt 0.456465 0.662930
vt 0.437500 0.562500
vt 0.343750 0.625000
vt 0.343750 0.687500
vt 0.312500 0.687500
vt 0.312500 0.312500
vt 0.332030 0.335940
vt 0.281250 0.375000
vt 0.312500 0.625000
vt 0.281250 0.625000
vt 0.281250 0.500000
vt 0.250000 0.562500
vt 0.250000 0.500000
vt 0.218750 0.500000
vt 0.125000 0.812500
vt 0.125000 0.875000
vt 0.093750 0.875000
vt 0.125000 0.125000
vt 0.093750 0.187500
vt 0.093750 0.125000
vt 0.031250 0.625000
vt 0.031250 0.687500
vt 0.000000 0.625000
vt 0.031250 0.312500
vt 0.031250 0.375000
vt 0.000000 0.312500
vt 1.000000 0.375000
vt 1.000000 0.437500
vt 0.968750 0.437500
vt 1.000000 0.562500
vt 0.968750 0.625000
vt 0.968750 0.562500
vt 0.906250 0.312500
vt 0.906250 0.375000
vt 0.875000 0.312500
vt 0.843750 0.625000
vt 0.812500 0.687500
vt 0.812500 0.625000
vt 0.812500 0.312500
vt 0.781250 0.312500
vt 0.781250 0.250000
vt 0.781250 0.812500
vt 0.750000 0.875000
vt 0.750000 0.812500
vt 0.781250 0.625000
vt 0.781250 0.687500
vt 0.750000 0.714296
vt 0.718750 0.562500
vt 0.687500 0.625000
vt 0.687500 0.562500
vt 0.718750 0.375000
vt 0.718750 0.437500
vt 0.687500 0.437500
vt 0.656250 0.062500
vt 0.656250 0.125000
vt 0.625000 0.125000
vt 0.625000 0.187500
vt 0.638923 0.250000
vt 0.593750 0.250000
vt 0.608254 0.437500
vt 0.562500 0.408104
vt 0.593750 0.375000
vt 0.611602 0.714296
vt 0.562500 0.812500
vt 0.562500 0.750000
vt 0.593750 0.687500
vt 0.562500 0.687500
vt 0.593750 0.562500
vt 0.562500 0.625000
vt 0.562500 0.562500
vt 0.531250 0.687500
vt 0.531250 0.625000
vt 0.468750 0.250000
vt 0.468750 0.312500
vt 0.437500 0.345385
vt 0.468750 0.625000
vt 0.456465 0.662930
vt 0.437500 0.562500
vt 0.406250 0.562500
vt 0.375000 0.625000
vt 0.375000 0.562500
vt 0.375000 0.687500
vt 0.375000 0.750000
vt 0.343750 0.750000
vt 0.343750 0.312500
vt 0.312500 0.375000
vt 0.312500 0.312500
vt 0.343750 0.625000
vt 0.343750 0.687500
vt 0.312500 0.687500
vt 0.281250 0.375000
vt 0.312500 0.625000
vt 0.281250 0.625000
vt 0.281250 0.500000
vt 0.250000 0.562500
vt 0.250000 0.500000
vt 0.218750 0.500000
vt 0.125000 0.812500
vt 0.125000 0.875000
vt 0.093750 0.875000
vt 0.125000 0.125000
vt 0.093750 0.187500
vt 0.093750 0.125000
vt 0.093750 0.062500
vt 0.062500 0.125000
vt 0.062500 0.062500
vt 0.093750 0.937500
vt 0.062500 0.937500
vt 0.031250 0.625000
vt 0.031250 0.687500
vt 0.000000 0.625000
vt 0.031250 0.312500
vt 0.031250 0.375000
vt 0.000000 0.312500
vt 1.000000 0.375000
vt 1.000000 0.437500
vt 0.968750 0.437500
vt 1.000000 0.562500
vt 0.968750 0.625000
vt 0.968750 0.562500
vt 0.906250 0.312500
vt 0.906250 0.375000
vt 0.875000 0.312500
vt 0.906250 0.250000
vt 0.875000 0.250000
vt 0.875000 0.158512
vt 0.875000 0.500000
vt 0.889761 0.532978
vt 0.843750 0.562500
vt 0.843750 0.625000
vt 0.812500 0.687500
vt 0.812500 0.625000
vt 0.812500 0.312500
vt 0.781250 0.312500
vt 0.781250 0.250000
vt 0.812500 0.437500
vt 0.781250 0.437500
vt 0.781250 0.375000
vt 0.781250 0.812500
vt 0.750000 0.875000
vt 0.750000 0.812500
vt 0.781250 0.625000
vt 0.781250 0.687500
vt 0.750000 0.714296
vt 0.718750 0.562500
vt 0.687500 0.625000
vt 0.687500 0.562500
vt 0.718750 0.375000
vt 0.718750 0.437500
vt 0.687500 0.437500
vt 0.656250 0.062500
vt 0.656250 0.125000
vt 0.625000 0.125000
vt 0.625000 0.187500
vt 0.638923 0.250000
vt 0.593750 0.250000
vt 0.608254 0.437500
vt 0.562500 0.408104
vt 0.593750 0.375000
vt 0.611602 0.714296
vt 0.562500 0.812500
vt 0.562500 0.750000
vt 0.593750 0.687500
vt 0.562500 0.687500
vt 0.593750 0.562500
vt 0.562500 0.625000
vt 0.562500 0.562500
vt 0.531250 0.687500
vt 0.531250 0.625000
vt 0.468750 0.250000
vt 0.468750 0.312500
vt 0.437500 0.345385
vt 0.468750 0.625000
vt 0.456465 0.662930
vt 0.437500 0.562500
vt 0.406250 0.562500
vt 0.375000 0.625000
vt 0.375000 0.562500
vt 0.343750 0.312500
vt 0.312500 0.375000
vt 0.312500 0.312500
vt 0.343750 0.625000
vt 0.343750 0.687500
vt 0.312500 0.687500
vt 0.281250 0.375000
vt 0.312500 0.625000
vt 0.281250 0.625000
vt 0.281250 0.500000
vt 0.250000 0.562500
vt 0.250000 0.500000
vt 0.218750 0.500000
vt 0.125000 0.812500
vt 0.125000 0.875000
vt 0.093750 0.875000
vt 0.125000 0.125000
vt 0.093750 0.187500
vt 0.093750 0.125000
vt 0.031250 0.625000
vt 0.031250 0.687500
vt 0.000000 0.625000
vt 0.031250 0.312500
vt 0.031250 0.375000
vt 0.000000 0.312500
vt 1.000000 0.375000
vt 1.000000 0.437500
vt 0.968750 0.437500
vt 1.000000 0.562500
vt 0.968750 0.625000
vt 0.968750 0.562500
vt 0.906250 0.312500
vt 0.906250 0.375000
vt 0.875000 0.312500
vt 0.843750 0.625000
vt 0.812500 0.687500
vt 0.812500 0.625000
vt 0.812500 0.312500
vt 0.781250 0.312500
vt 0.781250 0.250000
vt 0.781250 0.812500
vt 0.750000 0.875000
vt 0.750000 0.812500
vt 0.781250 0.625000
vt 0.781250 0.687500
vt 0.750000 0.714296
vt 0.718750 0.562500
vt 0.687500 0.625000
vt 0.687500 0.562500
vt 0.718750 0.375000
vt 0.718750 0.437500
vt 0.687500 0.437500
vt 0.656250 0.062500
vt 0.656250 0.125000
vt 0.625000 0.125000
vt 0.625000 0.187500
vt 0.638923 0.250000
vt 0.593750 0.250000
vt 0.608254 0.437500
vt 0.562500 0.408104
vt 0.593750 0.375000
vt 0.611602 0.714296
vt 0.562500 0.812500
vt 0.562500 0.750000
vt 0.593750 0.687500
vt 0.562500 0.687500
vt 0.593750 0.562500
vt 0.562500 0.625000
vt 0.562500 0.562500
vt 0.531250 0.687500
vt 0.531250 0.625000
vt 0.468750 0.250000
vt 0.468750 0.312500
vt 0.437500 0.345385
vt 0.468750 0.625000
vt 0.456465 0.662930
vt 0.437500 0.562500
vt 0.343750 0.625000
vt 0.343750 0.687500
vt 0.312500 0.687500
vt 0.312500 0.312500
vt 0.332030 0.335940
vt 0.281250 0.375000
vt 0.312500 0.625000
vt 0.281250 0.625000
vt 0.281250 0.500000
vt 0.250000 0.562500
vt 0.250000 0.500000
vt 0.218750 0.500000
vt 0.125000 0.812500
vt 0.125000 0.875000
vt 0.093750 0.875000
vt 0.125000 0.125000
vt 0.093750 0.187500
vt 0.093750 0.125000
vt 0.031250 0.625000
vt 0.031250 0.687500
vt 0.000000 0.625000
vt 0.031250 0.312500
vt 0.031250 0.375000
vt 0.000000 0.312500
vt 1.000000 0.375000
vt 1.000000 0.437500
vt 0.968750 0.437500
vt 1.000000 0.562500
vt 0.968750 0.625000
vt 0.968750 0.562500
vt 0.906250 0.312500
vt 0.906250 0.375000
vt 0.875000 0.312500
vt 0.843750 0.625000
vt 0.812500 0.687500
vt 0.812500 0.625000
vt 0.812500 0.312500
vt 0.781250 0.312500
vt 0.781250 0.250000
vt 0.781250 0.812500
vt 0.750000 0.875000
vt 0.750000 0.812500
vt 0.781250 0.625000
vt 0.781250 0.687500
vt 0.750000 0.714296
vt 0.718750 0.562500
vt 0.687500 0.625000
vt 0.687500 0.562500
vt 0.718750 0.375000
vt 0.718750 0.437500
vt 0.687500 0.437500
vt 0.656250 0.062500
vt 0.656250 0.125000
vt 0.625000 0.125000
vt 0.625000 0.187500
vt 0.638923 0.250000
vt 0.593750 0.250000
vt 0.608254 0.437500
vt 0.562500 0.408104
vt 0.593750 0.375000
vt 0.611602 0.714296
vt 0.562500 0.812500
vt 0.562500 0.750000
vt 0.593750 0.687500
vt 0.562500 0.687500
vt 0.593750 0.562500
vt 0.562500 0.625000
vt 0.562500 0.562500
vt 0.531250 0.687500
vt 0.531250 0.625000
vt 0.468750 0.250000
vt 0.468750 0.312500
vt 0.437500 0.345385
vt 0.468750 0.625000
vt 0.456465 0.662930
vt 0.437500 0.562500
vt 0.343750 0.625000
vt 0.343750 0.687500
vt 0.312500 0.687500
vt 0.312500 0.312500
vt 0.332030 0.335940
vt 0.281250 0.375000
vt 0.312500 0.625000
vt 0.281250 0.625000
vt 0.281250 0.500000
vt 0.250000 0.562500
vt 0.250000 0.500000
vt 0.218750 0.500000
vt 0.125000 0.812500
vt 0.125000 0.875000
vt 0.093750 0.875000
vt 0.125000 0.125000
vt 0.093750 0.187500
vt 0.093750 0.125000
vt 0.031250 0.625000
vt 0.031250 0.687500
vt 0.000000 0.625000
vt 0.031250 0.312500
vt 0.031250 0.375000
vt 0.000000 0.312500
vt 1.000000 0.375000
vt 1.000000 0.437500
vt 0.968750 0.437500
vt 1.000000 0.562500
vt 0.968750 0.625000
vt 0.968750 0.562500
vt 0.906250 0.312500
vt 0.906250 0.375000
vt 0.875000 0.312500
vt 0.843750 0.625000
vt 0.812500 0.687500
vt 0.812500 0.625000
vt 0.812500 0.312500
vt 0.781250 0.312500
vt 0.781250 0.250000
vt 0.781250 0.812500
vt 0.750000 0.875000
vt 0.750000 0.812500
vt 0.781250 0.625000
vt 0.781250 0.687500
vt 0.750000 0.714296
vt 0.639504 0.562500
vt 0.656250 0.625000
vt 0.625000 0.625000
vt 0.639504 0.562500
vt 0.656250 0.625000
vt 0.625000 0.625000
vt 0.639504 0.562500
vt 0.656250 0.625000
vt 0.625000 0.625000
vt 0.639504 0.562500
vt 0.656250 0.625000
vt 0.625000 0.625000
vn 0.9489 0.2812 0.1432
vn 0.9278 0.1628 0.3358
vn 0.1632 -0.5479 0.8205
vn -0.0682 -0.0319 0.9972
vn 0.1958 0.2964 0.9348
vn 0.0872 0.9582 -0.2725
vn 0.1878 0.9805 0.0575
vn -0.0288 0.9243 0.3807
vn -0.5428 0.0423 0.8388
vn -0.5865 0.6914 0.4219
vn -0.8601 0.3394 -0.3808
vn -0.8508 -0.3415 0.3993
vn -0.8216 0.4792 -0.3086
vn -0.9790 -0.1082 -0.1727
vn -0.8132 -0.4101 -0.4130
vn -0.1650 0.0856 -0.9826
vn -0.3823 -0.8710 0.3085
vn -0.1292 -0.2667 -0.9551
vn -0.2074 -0.9678 -0.1427
vn 0.0387 -0.9562 -0.2901
vn 0.1163 -0.5372 -0.8354
vn 0.5654 -0.8240 0.0357
vn 0.8356 -0.1672 -0.5232
vn 0.6409 -0.6009 0.4777
vn 0.3152 0.5548 -0.7699
vn 0.8977 0.0894 -0.4315
vn 0.8627 0.4745 0.1751
vn 0.8866 0.0647 0.4581
vn 0.1273 -0.4725 0.8721
vn -0.0683 -0.0319 0.9972
vn 0.1267 0.2114 0.9691
vn 0.1139 0.9749 -0.1914
vn 0.0912 0.9611 -0.2607
vn 0.1845 0.7131 0.6763
vn -0.2236 0.8835 0.4115
vn -0.4156 0.0212 0.9093
vn -0.6218 0.6620 0.4186
vn -0.7919 0.5697 0.2199
vn -0.4677 0.7510 -0.4660
vn -0.8867 -0.3713 0.2754
vn -0.8083 0.4997 -0.3113
vn -0.8817 -0.2563 0.3962
vn -0.8527 0.3453 -0.3921
vn -0.9483 -0.1994 -0.2469
vn -0.1676 0.1222 -0.9783
vn -0.3394 -0.8930 0.2954
vn -0.3273 -0.8941 0.3058
vn -0.1453 0.1675 -0.9751
vn -0.2873 -0.9407 -0.1804
vn 0.0584 -0.9013 -0.4293
vn 0.4278 -0.8994 -0.0900
vn 0.4557 -0.8747 0.1650
vn 0.9074 -0.3529 -0.2280
vn 0.8700 -0.1279 -0.4762
vn 0.6451 -0.5886 0.4873
vn 0.8419 -0.3746 0.3885
vn 0.3908 0.5218 -0.7583
vn 0.8772 0.1232 -0.4640
vn 0.9522 0.2773 0.1281
vn 0.9257 0.0445 0.3757
vn 0.0906 0.9611 -0.2608
vn 0.0908 0.9610 -0.2613
vn -0.7865 0.4716 -0.3987
vn -0.7892 0.4590 -0.4081
vn 0.6697 0.7076 0.2256
usemtl None.001
s 1
f 1/1/1 2/2/1 3/3/1
f 4/4/2 1/5/2 3/6/2
f 5/7/3 4/8/3 6/9/3
f 6/10/4 4/11/4 7/12/4
f 3/13/5 7/14/5 4/15/5
f 2/16/6 8/17/6 9/18/6
f 3/19/7 2/16/7 9/20/7
f 3/21/8 9/22/8 7/23/8
f 6/24/9 7/25/9 10/26/9
f 7/27/10 9/28/10 10/29/10
f 10/30/11 9/31/11 8/32/11
f 6/33/12 10/34/12 11/35/12
f 10/36/13 8/32/13 12/37/13
f 10/38/14 12/39/14 11/40/14
f 11/40/15 12/39/15 13/41/15
f 12/42/16 8/43/16 14/44/16
f 6/45/17 11/46/17 5/47/17
f 13/48/18 12/49/18 14/50/18
f 11/51/19 13/52/19 5/53/19
f 5/54/20 13/55/20 15/56/20
f 13/57/21 14/58/21 15/59/21
f 5/60/22 15/61/22 1/62/22
f 15/63/23 14/64/23 1/65/23
f 1/66/24 4/67/24 5/68/24
f 14/69/25 8/70/25 2/71/25
f 1/72/26 14/73/26 2/74/26
f 16/75/27 17/76/27 18/77/27
f 19/78/28 16/79/28 18/80/28
f 20/81/29 19/82/29 21/83/29
f 21/84/30 19/85/30 22/86/30
f 18/87/31 22/88/31 19/89/31
f 17/90/32 23/91/32 24/92/32
f 25/93/33 17/90/33 24/94/33
f 18/95/34 25/96/34 22/97/34
f 25/96/35 24/98/35 22/99/35
f 21/100/36 22/101/36 26/102/36
f 22/103/37 24/104/37 26/105/37
f 26/106/38 24/107/38 27/108/38
f 24/109/39 23/110/39 28/111/39
f 26/112/40 27/113/40 21/114/40
f 27/115/41 24/116/41 28/117/41
f 21/114/42 27/113/42 29/118/42
f 27/119/43 28/117/43 30/120/43
f 27/121/44 30/122/44 29/123/44
f 29/123/15 30/122/15 31/124/15
f 30/125/45 28/126/45 32/127/45
f 21/128/46 29/129/46 33/130/46
f 21/131/47 33/132/47 20/133/47
f 32/127/48 28/134/48 23/135/48
f 31/136/18 30/137/18 32/138/18
f 29/139/49 31/140/49 33/141/49
f 33/142/50 31/143/50 34/144/50
f 31/145/21 32/146/21 34/147/21
f 33/148/51 34/149/51 35/150/51
f 33/151/52 35/152/52 20/153/52
f 35/154/53 34/155/53 16/156/53
f 34/157/54 32/158/54 16/159/54
f 35/160/55 19/161/55 20/162/55
f 35/163/56 16/164/56 19/165/56
f 32/166/57 23/167/57 17/168/57
f 16/169/58 32/170/58 17/171/58
f 36/172/59 37/173/59 38/174/59
f 39/175/60 36/176/60 38/177/60
f 40/178/3 39/179/3 41/180/3
f 41/181/4 39/182/4 42/183/4
f 38/184/31 42/185/31 39/186/31
f 37/187/61 43/188/6 44/189/62
f 45/190/33 37/187/61 44/191/62
f 38/192/34 45/193/34 42/194/34
f 45/193/35 44/195/35 42/196/35
f 41/197/36 42/198/36 46/199/36
f 42/200/37 44/201/37 46/202/37
f 46/203/38 44/204/38 47/205/38
f 46/206/40 47/207/40 41/208/40
f 47/209/63 44/210/63 43/211/63
f 41/208/42 47/207/42 48/212/42
f 47/213/64 43/211/64 49/214/64
f 47/215/44 49/216/44 48/217/44
f 48/217/15 49/216/15 50/218/15
f 49/219/16 43/220/16 51/221/16
f 41/222/17 48/223/17 40/224/17
f 50/225/18 49/226/18 51/227/18
f 48/228/19 50/229/19 40/230/19
f 40/231/20 50/232/20 52/233/20
f 50/234/21 51/235/21 52/236/21
f 40/237/22 52/238/22 36/239/22
f 52/240/23 51/241/23 36/242/23
f 36/243/24 39/244/24 40/245/24
f 51/246/25 43/247/25 37/248/25
f 36/249/26 51/250/26 37/251/26
f 53/252/59 54/253/59 55/254/59
f 56/255/60 53/256/60 55/257/60
f 57/258/3 56/259/3 58/260/3
f 58/261/30 56/262/30 59/263/30
f 55/264/31 59/265/31 56/266/31
f 54/267/61 60/268/6 61/269/62
f 62/270/33 54/267/61 61/271/62
f 55/272/34 62/273/34 59/274/34
f 62/273/35 61/275/35 59/276/35
f 58/277/9 59/278/9 63/279/9
f 59/280/10 61/281/10 63/282/10
f 63/283/11 61/284/11 60/285/11
f 58/286/12 63/287/12 64/288/12
f 63/289/13 60/285/13 65/290/13
f 63/291/14 65/292/14 64/293/14
f 64/293/15 65/292/15 66/294/15
f 65/295/16 60/296/16 67/297/16
f 58/298/17 64/299/17 57/300/17
f 66/301/18 65/302/18 67/303/18
f 64/304/19 66/305/19 57/306/19
f 57/307/20 66/308/20 68/309/20
f 66/310/21 67/311/21 68/312/21
f 57/313/22 68/314/22 53/315/22
f 68/316/23 67/317/23 53/318/23
f 53/319/24 56/320/24 57/321/24
f 67/322/25 60/323/25 54/324/25
f 53/325/26 67/326/26 54/327/26
f 69/328/59 70/329/59 71/330/59
f 72/331/60 69/332/60 71/333/60
f 73/334/3 72/335/3 74/336/3
f 74/337/4 72/338/4 75/339/4
f 71/340/31 75/341/31 72/342/31
f 70/343/61 76/344/6 77/345/62
f 78/346/33 70/343/61 77/347/62
f 71/348/34 78/349/34 75/350/34
f 78/349/35 77/351/35 75/352/35
f 74/353/9 75/354/9 79/355/9
f 75/356/10 77/357/10 79/358/10
f 79/359/11 77/360/11 76/361/11
f 74/362/12 79/363/12 80/364/12
f 79/365/13 76/361/13 81/366/13
f 79/367/14 81/368/14 80/369/14
f 80/369/15 81/368/15 82/370/15
f 81/371/16 76/372/16 83/373/16
f 74/374/17 80/375/17 73/376/17
f 82/377/18 81/378/18 83/379/18
f 80/380/19 82/381/19 73/382/19
f 73/383/20 82/384/20 84/385/20
f 82/386/21 83/387/21 84/388/21
f 73/389/22 84/390/22 69/391/22
f 84/392/23 83/393/23 69/394/23
f 69/395/24 72/396/24 73/397/24
f 83/398/25 76/399/25 70/400/25
f 69/401/26 83/402/26 70/403/26
f 18/404/65 17/405/65 25/406/65
f 38/407/65 37/408/65 45/409/65
f 55/410/65 54/411/65 62/412/65
f 71/413/65 70/414/65 78/415/65
