# Blender v2.93.1 OBJ File: 'signpost.blend'
# www.blender.org
mtllib signpost.mtl
o Cylinder
v 0.013389 -0.047170 -0.049819
v 0.000428 0.394016 -0.051999
v 0.050950 -0.047493 -0.010423
v 0.046257 0.393949 -0.022835
v 0.037048 -0.047270 0.035127
v 0.045899 0.394006 0.022005
v 0.009755 -0.047217 0.049039
v 0.005868 0.394007 0.050821
v -0.026075 -0.046760 0.043935
v -0.034286 0.393966 0.037657
v -0.051942 -0.049515 0.000642
v -0.050000 0.393999 -0.000000
v -0.029745 -0.047257 -0.041200
v -0.041197 0.393999 -0.029750
v -0.143468 -0.027517 -0.174406
v -0.143468 -0.063517 -0.174406
v 0.033308 -0.027517 0.002371
v 0.033308 -0.063517 0.002371
v -0.178824 -0.027517 -0.139051
v -0.178824 -0.063517 -0.139051
v -0.002047 -0.027517 0.037726
v -0.002047 -0.063517 0.037726
v -0.001849 -0.027517 -0.032493
v -0.001849 -0.063517 -0.032493
v 0.174927 -0.027517 0.144284
v 0.174927 -0.063517 0.144284
v -0.037205 -0.027517 0.002862
v -0.037205 -0.063517 0.002862
v 0.139572 -0.027517 0.179639
v 0.139572 -0.063517 0.179639
v -0.170023 -0.027517 0.204994
v -0.170023 -0.063517 0.204994
v -0.028601 -0.027517 -0.007138
v -0.028601 -0.063517 -0.007138
v -0.205378 -0.027517 0.169638
v -0.205378 -0.063517 0.169638
v 0.184643 -0.027517 -0.161392
v 0.184643 -0.063517 -0.161392
v 0.007866 -0.027517 0.015385
v 0.007866 -0.063517 0.015385
v 0.149288 -0.027517 -0.196747
v 0.149288 -0.063517 -0.196747
vt 0.954900 0.500000
vt 0.937500 1.000000
vt 0.906250 1.000000
vt 0.875000 0.500000
vt 0.826331 1.000000
vt 0.843750 0.500000
vt 0.698696 1.000000
vt 0.687500 0.500000
vt 0.718750 0.500000
vt 0.642801 0.500000
vt 0.625000 1.000000
vt 0.593750 1.000000
vt 0.593750 0.500000
vt 0.540212 1.000000
vt 0.562500 0.500000
vt 0.531250 0.500000
vt 0.500000 1.000000
vt 0.500000 0.500000
vt 0.394994 0.500000
vt 0.343750 1.000000
vt 0.343750 0.500000
vt 0.312500 0.500000
vt 0.312500 1.000000
vt 0.281250 1.000000
vt 0.468750 0.500000
vt 0.468750 1.000000
vt 0.137664 1.000000
vt 0.125000 0.500000
vt 0.156250 0.500000
vt 0.009576 1.000000
vt 0.000000 0.500000
vt 0.031250 0.500000
vt 0.781250 1.000000
vt 0.750000 1.000000
vt 0.782024 0.500000
vt 0.218750 1.000000
vt 0.187500 1.000000
vt 0.209542 0.500000
vt 0.093750 1.000000
vt 0.062500 1.000000
vt 0.081076 0.500000
vt 0.478276 0.191061
vt 0.432610 0.389513
vt 0.014612 0.203178
vt 0.525171 0.290669
vt 0.651750 0.464086
vt 0.750000 0.010000
vt 0.625000 0.500000
vt 0.875000 0.750000
vt 0.625000 0.750000
vt 0.375000 0.750000
vt 0.625000 1.000000
vt 0.375000 1.000000
vt 0.375000 0.000000
vt 0.625000 0.250000
vt 0.375000 0.250000
vt 0.125000 0.500000
vt 0.375000 0.500000
vt 0.237708 0.482840
vt 0.059212 0.388153
vt 0.130671 0.053368
vt 0.321633 0.024889
vt 0.851284 0.456278
vt 0.980810 0.282841
vt 0.921055 0.088165
vt 0.796822 0.014612
vt 0.603564 0.061198
vt 0.875000 0.500000
vt 0.625000 0.000000
vt 0.125000 0.750000
vt 0.875000 0.750000
vt 0.625000 0.500000
vt 0.875000 0.500000
vt 0.375000 0.750000
vt 0.625000 1.000000
vt 0.375000 1.000000
vt 0.375000 0.000000
vt 0.625000 0.250000
vt 0.375000 0.250000
vt 0.125000 0.500000
vt 0.375000 0.500000
vt 0.625000 0.750000
vt 0.625000 0.000000
vt 0.125000 0.750000
vt 0.875000 0.750000
vt 0.625000 0.500000
vt 0.875000 0.500000
vt 0.375000 0.750000
vt 0.625000 1.000000
vt 0.375000 1.000000
vt 0.375000 0.000000
vt 0.625000 0.250000
vt 0.375000 0.250000
vt 0.125000 0.750000
vt 0.375000 0.500000
vt 0.625000 0.750000
vt 0.625000 0.000000
vt 0.125000 0.500000
vt 0.625000 0.750000
vt 0.875000 0.500000
vt 0.875000 0.750000
vt 0.375000 0.750000
vt 0.625000 1.000000
vt 0.375000 1.000000
vt 0.375000 0.000000
vt 0.625000 0.250000
vt 0.375000 0.250000
vt 0.125000 0.500000
vt 0.375000 0.500000
vt 0.625000 0.500000
vt 0.625000 0.000000
vt 0.125000 0.750000
vn 0.5369 0.0116 -0.8436
vn 0.7237 -0.0117 -0.6900
vn 0.9564 -0.0105 0.2919
vn 0.5842 0.0124 0.8115
vn 0.4541 0.0004 0.8909
vn -0.6855 -0.0090 0.7280
vn -0.8582 -0.0087 0.5133
vn -0.9229 0.0046 0.3851
vn -0.3115 0.0077 0.9502
vn -0.8831 -0.0107 -0.4691
vn -0.1959 -0.0106 -0.9806
vn 0.9999 0.0109 0.0080
vn -0.9589 0.0038 -0.2837
vn -0.4714 0.0106 -0.8819
vn 0.0002 1.0000 -0.0013
vn -0.1683 -0.9755 -0.1419
vn 0.0000 1.0000 0.0000
vn 0.7071 0.0000 0.7071
vn -0.7071 0.0000 0.7071
vn 0.0000 -1.0000 0.0000
vn 0.7071 0.0000 -0.7071
vn -0.7071 0.0000 -0.7071
vn 0.2292 -0.0318 0.9729
vn 0.0004 1.0000 0.0016
vn 0.0006 1.0000 0.0002
vn -0.0015 1.0000 0.0015
vn -0.0000 1.0000 -0.0001
vn -0.0359 -0.9812 -0.1896
vn 0.1542 -0.9758 -0.1550
vn 0.3878 -0.9135 0.1228
vn 0.3288 -0.6874 0.6476
vn -0.4783 -0.8108 0.3374
vn 0.7056 0.0000 0.7086
vn 0.8606 0.0000 -0.5093
vn -0.5255 0.0000 0.8508
vn -0.7293 0.0000 -0.6842
usemtl Material.002
s off
f 1/1/1 2/2/1 4/3/1
f 1/4/2 4/5/2 3/6/2
f 6/7/3 5/8/3 3/9/3
f 5/10/4 6/11/4 8/12/4
f 5/13/5 8/14/5 7/15/5
f 7/16/6 8/17/6 22/18/6
f 9/19/7 10/20/7 11/21/7
f 11/22/8 10/23/8 12/24/8
f 9/25/9 8/17/9 10/26/9
f 14/27/10 13/28/10 11/29/10
f 2/30/11 1/31/11 13/32/11
f 4/33/12 6/34/12 3/35/12
f 12/36/13 14/37/13 11/38/13
f 14/39/14 2/40/14 13/41/14
f 6/42/15 4/43/15 12/44/15
f 11/45/16 13/46/16 22/47/16
f 15/48/17 21/49/17 17/50/17
f 18/51/18 21/52/18 22/53/18
f 22/54/19 19/55/19 20/56/19
f 18/51/20 20/57/20 16/58/20
f 16/58/21 17/50/21 18/51/21
f 20/56/22 15/48/22 16/58/22
f 9/25/23 22/18/23 8/17/23
f 4/43/24 2/59/24 14/60/24
f 14/60/25 12/44/25 4/43/25
f 12/44/26 10/61/26 8/62/26
f 6/42/27 12/44/27 8/62/27
f 13/46/28 1/63/28 22/47/28
f 1/63/29 3/64/29 22/47/29
f 3/64/30 5/65/30 22/47/30
f 5/65/31 7/66/31 22/47/31
f 22/47/32 9/67/32 11/45/32
f 15/48/17 19/68/17 21/49/17
f 18/51/18 17/50/18 21/52/18
f 22/54/19 21/69/19 19/55/19
f 18/51/20 22/70/20 20/57/20
f 16/58/21 15/48/21 17/50/21
f 20/56/22 19/55/22 15/48/22
usemtl Material
f 29/71/17 23/72/17 27/73/17
f 26/74/18 29/75/18 30/76/18
f 30/77/19 27/78/19 28/79/19
f 26/74/20 28/80/20 24/81/20
f 24/81/21 25/82/21 26/74/21
f 28/79/22 23/72/22 24/81/22
f 29/71/17 25/82/17 23/72/17
f 26/74/18 25/82/18 29/75/18
f 30/77/19 29/83/19 27/78/19
f 26/74/20 30/84/20 28/80/20
f 24/81/21 23/72/21 25/82/21
f 28/79/22 27/78/22 23/72/22
usemtl Material.001
f 35/85/17 21/86/17 33/87/17
f 32/88/19 35/89/19 36/90/19
f 36/91/22 33/92/22 34/93/22
f 36/94/20 22/95/20 32/88/20
f 22/95/33 31/96/33 32/88/33
f 34/93/34 21/86/34 22/95/34
f 35/85/17 31/96/17 21/86/17
f 32/88/19 31/96/19 35/89/19
f 36/91/22 35/97/22 33/92/22
f 36/94/20 34/98/20 22/95/20
f 22/95/33 21/86/33 31/96/33
f 34/93/34 33/92/34 21/86/34
usemtl Material.003
f 39/99/17 41/100/17 33/101/17
f 40/102/35 33/103/35 34/104/35
f 34/105/36 41/106/36 42/107/36
f 40/102/20 42/108/20 38/109/20
f 38/109/18 39/99/18 40/102/18
f 42/107/21 37/110/21 38/109/21
f 39/99/17 37/110/17 41/100/17
f 40/102/35 39/99/35 33/103/35
f 34/105/36 33/111/36 41/106/36
f 40/102/20 34/112/20 42/108/20
f 38/109/18 37/110/18 39/99/18
f 42/107/21 41/106/21 37/110/21
